<?xml version="1.0" encoding="utf-8"?>
<!-- Generator: Adobe Illustrator 21.1.0, SVG Export Plug-In . SVG Version: 6.00 Build 0)  -->
<svg version="1.1" xmlns="http://www.w3.org/2000/svg" xmlns:xlink="http://www.w3.org/1999/xlink" x="0px" y="0px"
	 viewBox="0 0 45.5 44.8" style="enable-background:new 0 0 45.5 44.8;" xml:space="preserve">
<style type="text/css">
	.st0{fill:#616160;}
	.st1{opacity:0.15;fill:#74B859;}
	.st2{fill:#74B859;}
	.st3{display:none;}
	.st4{display:inline;}
	.st5{fill:#2DAB66;}
	.st6{fill:#FFFFFF;}
	.st7{fill:#0F292B;stroke:#0F292B;stroke-width:1.0269;stroke-miterlimit:10;}
	.st8{fill:#E84E1B;}
	.st9{fill:#E1033A;}
	.st10{fill:#FFFFFF;stroke:#FFFFFF;stroke-miterlimit:10;}
	.st11{fill:none;stroke:#E84E1B;stroke-width:1.5;stroke-miterlimit:10;}
	.st12{fill:none;stroke:#FFFFFF;stroke-width:2.8407;stroke-linecap:round;stroke-linejoin:round;stroke-miterlimit:10;}
	.st13{fill:none;stroke:#E1033A;stroke-width:1.5;stroke-miterlimit:10;}
	.st14{fill:none;stroke:#FFFFFF;stroke-width:2.8281;stroke-linejoin:round;stroke-miterlimit:10;}
	.st15{fill:#74B859;stroke:#74B859;stroke-width:1.5;stroke-miterlimit:10;}
	.st16{fill:#422918;}
	.st17{fill:#5A9F3C;}
	.st18{fill:url(#SVGID_1_);}
	.st19{fill:none;stroke:#FFFFFF;stroke-width:2.5;stroke-linecap:round;stroke-linejoin:round;stroke-miterlimit:10;}
	.st20{fill:#639B36;}
	.st21{fill:url(#SVGID_2_);}
	.st22{opacity:0.6;fill:#FFFFFF;}
	.st23{fill:none;stroke:#FFFFFF;stroke-width:2.5;stroke-linejoin:round;stroke-miterlimit:10;}
	.st24{fill:none;stroke:#1D1D1B;stroke-width:1.5;stroke-miterlimit:10;}
	.st25{fill:#0F292B;}
	.st26{fill:url(#SVGID_3_);}
	.st27{opacity:0.9;fill:url(#SVGID_4_);}
	.st28{opacity:0.9;fill:url(#SVGID_5_);}
	.st29{opacity:0.66;fill:url(#SVGID_6_);}
</style>
<g id="_x31__варіант">
	<g id="команда">
	</g>
	<g id="заходи">
	</g>
	<g id="про_нас">
	</g>
	<g id="головна_2_">
	</g>
</g>
<g id="Layer_2">
	<g id="лого">
	</g>
</g>
<g id="Layer_6">
	<g>
		<circle class="st2" cx="22.7" cy="22.5" r="21.3"/>
		<g>
			<path class="st6" d="M33,31c-0.5,0.3-1.6,0.7-2.4,0.7c-0.2,0-0.3-0.1-0.3-0.3c-0.4-1.9-3.2-9.5-8.3-14.3c-0.1-0.1-0.3,0-0.3,0.1
				c-1.5,6.3-3.5,10.6-6.1,14.2c-0.3,0.3-0.7,0.5-1.1,0.5c-0.8,0-1.9-0.3-2.3-0.4c-0.1,0-0.2-0.2-0.1-0.4c4.7-5.5,7.1-12.6,8.3-21.8
				c0-0.2,0.2-0.3,0.4-0.3c0.5,0.1,1.5,0.3,1.9,0.4c0.2,0,0.3,0.2,0.3,0.4c-0.2,1.4-0.4,2.7-0.6,4c4.1,4,8.2,9.6,10.8,16.7
				C33.2,30.7,33.1,30.9,33,31z"/>
			<path class="st6" d="M19.9,29.5c1.4-2.1,2.3-4.8,2.8-6c0-0.1,0.1-0.1,0.2,0c1.7,1.9,3,4.2,3.7,6.1c0.4,1.2,0.3,2.4-1,3
				c-0.8,0.4-1.7,0.8-2.1,1c-0.2,0.1-0.5,0.1-0.7,0l-1.3-0.8C20,32.2,19.1,30.7,19.9,29.5z"/>
		</g>
	</g>
</g>
</svg>
